# xmcd
#
# Track frame offsets: 
#        150
#        17940
#        34872
#        51155
#        69685
#        89780
#        106777
#        126457
#        142437
#        162757
#        178030
#
# Disc length: 2595 seconds
#
# Revision: 0
# Processed by: cddbd v1.5.2PL0 Copyright (c) Steve Scherf et al.
# Submitted via: ExactAudioCopy v0.90b4
#
DISCID=a70a210b
DTITLE=Joan Peña - El Hombre Aquel
DYEAR=2003
DGENRE=Latin
TTITLE0=Asi No Se Vale
TTITLE1=Muriendo A Plazo
TTITLE2=Jamás
TTITLE3=El Hombre Aquel
TTITLE4=Ayúdala
TTITLE5=No Encuentro Palabras
TTITLE6=Crees Que Canto Por Tí
TTITLE7=Te Doy
TTITLE8=Sin Tí
TTITLE9=Noche
TTITLE10=Pónme A Mama
EXTD=
EXTT0=
EXTT1=
EXTT2=
EXTT3=
EXTT4=
EXTT5=
EXTT6=
EXTT7=
EXTT8=
EXTT9=
EXTT10=
PLAYORDER=
